# xmcd
# Track frame offsets:
# 150
# 14943
# 28200
# 62796
# 86487
# 128620
# 167481
# 175499
# 187898
# 199732
# 207395
# 212741
# 233077
# 275661
# 311399
#
# Disc length: 4444 seconds
# Revision: 0
# Processed by: cddbd v1.4PL0 Copyright (c) Steve Scherf et al.
# Submitted via: VisiTrax 2.9.6.194 - For more info visit www.synapsa.com
#
DISCID=d8115a0f
DTITLE=The Harlem Reach Ensemble - Gospel at its best
DYEAR=1999
DGENRE=
TTITLE0=Amen
TTITLE1=Lets shout
TTITLE2=Amazing grace
TTITLE3=Heaven is the place
TTITLE4=Heating
TTITLE5=Jesus is his name
TTITLE6=Joy to the World
TTITLE7=Oh, come ye faithful
TTITLE8=Silent night
TTITLE9=Noel
TTITLE10=Go, tell it all the mountain
TTITLE11=I feel the spirit
TTITLE12=Center of my joy
TTITLE13=Oh when the saints
TTITLE14=Oh happy day
EXTD=
EXTT0=
EXTT1=
EXTT2=
EXTT3=
EXTT4=
EXTT5=
EXTT6=
EXTT7=
EXTT8=
EXTT9=
EXTT10=
EXTT11=
EXTT12=
EXTT13=
EXTT14=
PLAYORDER=
